<!DOCTYPE svg PUBLIC "-//W3C//DTD SVG 20010904//EN" "http://www.w3.org/TR/2001/REC-SVG-20010904/DTD/svg10.dtd">
<svg version="1.0" xmlns="http://www.w3.org/2000/svg" width="834px" height="834px" viewBox="0 0 8340 8340" preserveAspectRatio="xMidYMid meet">
<g id="layer101" fill="#02a96c" stroke="none">
 <path d="M1405 8329 c-349 -27 -687 -181 -938 -427 -201 -197 -332 -415 -409 -681 -53 -185 -58 -243 -58 -732 l0 -447 218 75 c239 82 466 150 612 183 52 12 98 25 103 29 4 4 12 34 17 67 14 87 80 214 148 283 42 43 80 69 147 100 50 24 97 47 105 51 11 5 20 57 37 206 46 401 110 775 193 1112 l47 192 -61 -1 c-34 -1 -106 -5 -161 -10z"/>
 <path d="M1865 8328 c-18 -48 -121 -497 -149 -648 -50 -268 -115 -734 -116 -831 0 -11 21 -24 63 -39 127 -46 232 -134 303 -255 23 -40 27 -43 62 -39 238 26 609 31 905 14 285 -17 633 -69 922 -137 l109 -26 25 34 c49 67 142 148 204 178 136 67 295 80 422 36 l70 -24 30 32 c17 18 118 134 225 257 107 124 321 351 475 506 389 390 584 561 1074 941 13 10 -478 12 -2302 13 -1845 0 -2319 -3 -2322 -12z"/>
 <path d="M6840 8293 c-599 -424 -1165 -938 -1721 -1563 -108 -121 -239 -277 -239 -284 0 -3 16 -31 35 -63 55 -91 77 -177 76 -302 l0 -107 107 -59 c518 -285 1077 -731 1485 -1185 72 -80 132 -147 133 -148 2 -2 36 4 76 13 116 27 258 19 362 -21 10 -4 42 33 101 117 361 507 748 1198 1017 1816 l72 166 -12 181 c-16 255 -56 419 -147 611 -219 459 -698 808 -1180 860 -33 3 -69 8 -80 10 -12 2 -46 -15 -85 -42z"/>
 <path d="M2195 6294 c-33 -2 -84 -6 -112 -10 -50 -5 -53 -7 -53 -33 0 -77 -54 -215 -116 -298 -70 -92 -211 -184 -306 -199 l-38 -7 0 -116 c0 -64 7 -192 15 -286 80 -907 310 -1753 698 -2557 44 -93 85 -168 91 -168 6 0 33 7 60 15 27 8 68 15 90 15 l42 0 73 213 c326 938 794 1905 1310 2705 l92 143 -35 48 c-69 97 -104 191 -115 315 l-6 70 -95 22 c-185 44 -417 84 -648 110 -130 15 -787 27 -947 18z"/>
 <path d="M854 6064 c-154 -40 -495 -147 -694 -217 l-155 -54 -3 -1470 -2 -1470 127 -61 c474 -225 926 -381 1438 -496 183 -41 462 -89 474 -82 5 3 11 21 14 39 7 46 44 120 88 179 l37 50 -85 176 c-174 360 -326 745 -427 1077 -183 606 -294 1246 -324 1878 l-7 148 -56 23 c-118 48 -224 146 -278 257 l-27 55 -120 -32z"/>
 <path d="M8221 5863 c-238 -477 -460 -850 -770 -1292 l-101 -144 21 -31 c71 -106 115 -256 105 -361 -7 -84 -42 -189 -83 -253 -19 -30 -32 -60 -29 -67 2 -7 39 -68 82 -136 290 -461 558 -1000 828 -1664 l65 -160 1 2168 c0 1192 -1 2167 -3 2167 -1 0 -53 -102 -116 -227z"/>
 <path d="M4831 5714 c-30 -30 -74 -67 -99 -81 -116 -68 -269 -97 -387 -73 -33 7 -71 14 -85 17 -24 4 -34 -8 -127 -154 -483 -756 -938 -1693 -1238 -2548 -35 -99 -70 -199 -78 -222 l-15 -41 63 -41 c117 -76 209 -209 237 -342 7 -32 17 -59 23 -59 47 0 366 34 470 49 1007 152 1934 627 2739 1403 l140 134 -37 86 c-57 132 -65 270 -24 400 16 50 66 139 99 175 19 21 20 24 5 47 -28 41 -446 457 -573 569 -207 182 -391 324 -599 462 -180 120 -406 256 -445 269 -9 3 -37 -17 -69 -50z"/>
 <path d="M6475 3438 c-961 -909 -2068 -1414 -3292 -1503 l-92 -7 -26 -55 c-13 -30 -47 -83 -75 -118 l-50 -62 82 -109 c374 -498 951 -1083 1467 -1487 l124 -98 1201 3 c1192 3 1202 3 1296 25 187 43 388 128 541 229 141 93 319 271 422 421 82 120 190 368 212 484 11 57 -167 555 -355 993 -190 446 -347 750 -627 1219 -101 169 -128 207 -141 201 -86 -36 -133 -46 -232 -47 -94 -1 -115 2 -196 31 -50 18 -93 32 -95 31 -2 0 -76 -68 -164 -151z"/>
 <path d="M0 1993 c0 -654 3 -692 59 -885 166 -574 655 -1004 1246 -1094 102 -16 665 -20 665 -5 0 5 13 102 30 216 52 359 134 783 236 1213 l46 194 -24 16 c-87 60 -165 165 -199 266 l-17 51 -184 31 c-234 39 -398 74 -623 135 -359 96 -874 287 -1156 429 -32 17 -63 30 -69 30 -7 0 -10 -195 -10 -597z"/>
 <path d="M2700 1570 c-14 -4 -65 -8 -115 -9 l-90 -1 -53 -233 c-63 -280 -90 -413 -142 -702 -46 -259 -102 -616 -97 -621 2 -2 457 -3 1012 -2 l1008 3 -121 102 c-480 408 -908 859 -1259 1328 -58 77 -108 141 -112 141 -3 1 -17 -2 -31 -6z"/>
 </g>

</svg>